<svg width="124" height="35" viewBox="0 0 124 35" fill="none" xmlns="http://www.w3.org/2000/svg">
<path d="M29.8479 4.16C29.9652 4.16 30.0932 4.16 30.2319 4.16C30.3705 4.14933 30.4985 4.144 30.6159 4.144C30.7439 4.144 30.8505 4.144 30.9359 4.144C31.0319 4.13333 31.0959 4.128 31.1279 4.128C32.5039 4.128 33.5225 4.352 34.1839 4.8C34.8452 5.248 35.1759 6.016 35.1759 7.104C35.1759 8.18133 34.8452 8.944 34.1839 9.392C33.5332 9.84 32.5145 10.064 31.1279 10.064H30.6799C30.5199 10.064 30.3545 10.0587 30.1839 10.048V13.072H31.6079V14H26.0719V13.072H27.4959V5.088H26.0719V4.16H29.8479ZM31.1279 4.944C30.9465 4.944 30.7759 4.94933 30.6159 4.96C30.4559 4.97067 30.3119 4.98667 30.1839 5.008V9.168C30.4505 9.2 30.7652 9.216 31.1279 9.216C31.3732 9.216 31.5705 9.2 31.7199 9.168C31.8052 9.15733 31.8799 9.14133 31.9439 9.12C31.9865 8.97067 32.0292 8.8 32.0719 8.608C32.1039 8.43733 32.1305 8.22933 32.1519 7.984C32.1839 7.728 32.1999 7.44 32.1999 7.12C32.1999 6.78933 32.1839 6.496 32.1519 6.24C32.1305 5.984 32.1039 5.76533 32.0719 5.584C32.0292 5.38133 31.9865 5.2 31.9439 5.04C31.8799 5.02933 31.8052 5.01333 31.7199 4.992C31.6452 4.98133 31.5545 4.97067 31.4479 4.96C31.3519 4.94933 31.2452 4.944 31.1279 4.944ZM39.5201 6.704C40.1068 6.704 40.5921 6.76267 40.9761 6.88C41.3601 6.98667 41.6695 7.16267 41.9041 7.408C42.1388 7.65333 42.3041 7.97867 42.4001 8.384C42.4961 8.77867 42.5441 9.26933 42.5441 9.856C42.5441 10.0373 42.5388 10.1973 42.5281 10.336C42.5175 10.464 42.5068 10.5707 42.4961 10.656C42.4855 10.7627 42.4748 10.8427 42.4641 10.896H38.5121C38.5228 11.2587 38.5441 11.5893 38.5761 11.888C38.6081 12.176 38.6401 12.4267 38.6721 12.64C38.7148 12.896 38.7575 13.12 38.8001 13.312C38.8321 13.3333 38.8801 13.3493 38.9441 13.36C38.9975 13.3707 39.0721 13.3813 39.1681 13.392C39.2748 13.392 39.4081 13.392 39.5681 13.392C39.8348 13.392 40.0855 13.376 40.3201 13.344C40.5655 13.3013 40.7788 13.2373 40.9601 13.152C41.1415 13.0667 41.2801 12.9493 41.3761 12.8C41.4828 12.64 41.5361 12.448 41.5361 12.224H42.4001C42.4001 12.672 42.2988 13.024 42.0961 13.28C41.9041 13.536 41.6588 13.7333 41.3601 13.872C41.0721 14 40.7575 14.08 40.4161 14.112C40.0748 14.144 39.7548 14.16 39.4561 14.16C38.8055 14.16 38.2508 14.096 37.7921 13.968C37.3441 13.8293 36.9761 13.616 36.6881 13.328C36.4108 13.0293 36.2081 12.6453 36.0801 12.176C35.9521 11.696 35.8881 11.1147 35.8881 10.432C35.8881 9.74933 35.9415 9.17333 36.0481 8.704C36.1655 8.224 36.3628 7.84 36.6401 7.552C36.9175 7.25333 37.2855 7.04 37.7441 6.912C38.2135 6.77333 38.8055 6.704 39.5201 6.704ZM38.8001 7.52C38.7468 7.75467 38.6988 8.01067 38.6561 8.288C38.6241 8.53333 38.5921 8.82133 38.5601 9.152C38.5281 9.472 38.5121 9.824 38.5121 10.208H40.0641C40.0428 9.76 40.0161 9.37067 39.9841 9.04C39.9521 8.69867 39.9148 8.416 39.8721 8.192C39.8295 7.92533 39.7815 7.70133 39.7281 7.52C39.6961 7.50933 39.6588 7.49333 39.6161 7.472C39.5735 7.46133 39.5201 7.45067 39.4561 7.44C39.4028 7.42933 39.3388 7.424 39.2641 7.424C39.1895 7.424 39.1255 7.42933 39.0721 7.44C39.0188 7.45067 38.9708 7.46133 38.9281 7.472C38.8855 7.49333 38.8428 7.50933 38.8001 7.52ZM44.1494 6.08L46.6774 5.392V6.816H48.5974V7.616H46.6774V13.2H47.0134C47.632 13.2 47.9414 12.7307 47.9414 11.792H48.7574C48.7574 12.1333 48.736 12.4427 48.6934 12.72C48.6614 12.9973 48.56 13.2373 48.3894 13.44C48.2294 13.6427 47.984 13.7973 47.6534 13.904C47.3334 14.0107 46.8854 14.064 46.3094 14.064C45.9147 14.064 45.5787 14.0213 45.3014 13.936C45.024 13.84 44.8 13.7173 44.6294 13.568C44.4587 13.4187 44.336 13.2533 44.2614 13.072C44.1867 12.8907 44.1494 12.704 44.1494 12.512V6.08ZM9.43763 21.16V24.664C8.90429 24.664 8.45629 24.568 8.09363 24.376C7.74163 24.184 7.45896 23.9547 7.24563 23.688C7.03229 23.4107 6.87229 23.128 6.76563 22.84C6.65896 22.5413 6.58963 22.2907 6.55763 22.088H5.27763V25.96H7.91763V26.888H5.27763V30.072H6.73363V31H1.16563V30.072H2.58963V26.888H1.16563V25.96H2.58963V22.088H1.16563V21.16H9.43763ZM13.6295 23.704C14.2162 23.704 14.7015 23.7627 15.0855 23.88C15.4695 23.9867 15.7788 24.1627 16.0135 24.408C16.2482 24.6533 16.4135 24.9787 16.5095 25.384C16.6055 25.7787 16.6535 26.2693 16.6535 26.856C16.6535 27.0373 16.6482 27.1973 16.6375 27.336C16.6268 27.464 16.6162 27.5707 16.6055 27.656C16.5948 27.7627 16.5842 27.8427 16.5735 27.896H12.6215C12.6322 28.2587 12.6535 28.5893 12.6855 28.888C12.7175 29.176 12.7495 29.4267 12.7815 29.64C12.8242 29.896 12.8668 30.12 12.9095 30.312C12.9415 30.3333 12.9895 30.3493 13.0535 30.36C13.1068 30.3707 13.1815 30.3813 13.2775 30.392C13.3842 30.392 13.5175 30.392 13.6775 30.392C13.9442 30.392 14.1948 30.376 14.4295 30.344C14.6748 30.3013 14.8882 30.2373 15.0695 30.152C15.2508 30.0667 15.3895 29.9493 15.4855 29.8C15.5922 29.64 15.6455 29.448 15.6455 29.224H16.5095C16.5095 29.672 16.4082 30.024 16.2055 30.28C16.0135 30.536 15.7682 30.7333 15.4695 30.872C15.1815 31 14.8668 31.08 14.5255 31.112C14.1842 31.144 13.8642 31.16 13.5655 31.16C12.9148 31.16 12.3602 31.096 11.9015 30.968C11.4535 30.8293 11.0855 30.616 10.7975 30.328C10.5202 30.0293 10.3175 29.6453 10.1895 29.176C10.0615 28.696 9.9975 28.1147 9.9975 27.432C9.9975 26.7493 10.0508 26.1733 10.1575 25.704C10.2748 25.224 10.4722 24.84 10.7495 24.552C11.0268 24.2533 11.3948 24.04 11.8535 23.912C12.3228 23.7733 12.9148 23.704 13.6295 23.704ZM12.9095 24.52C12.8562 24.7547 12.8082 25.0107 12.7655 25.288C12.7335 25.5333 12.7015 25.8213 12.6695 26.152C12.6375 26.472 12.6215 26.824 12.6215 27.208H14.1735C14.1522 26.76 14.1255 26.3707 14.0935 26.04C14.0615 25.6987 14.0242 25.416 13.9815 25.192C13.9388 24.9253 13.8908 24.7013 13.8375 24.52C13.8055 24.5093 13.7682 24.4933 13.7255 24.472C13.6828 24.4613 13.6295 24.4507 13.5655 24.44C13.5122 24.4293 13.4482 24.424 13.3735 24.424C13.2988 24.424 13.2348 24.4293 13.1815 24.44C13.1282 24.4507 13.0802 24.4613 13.0375 24.472C12.9948 24.4933 12.9522 24.5093 12.9095 24.52ZM21.4108 23.704C21.9974 23.704 22.4828 23.7627 22.8668 23.88C23.2508 23.9867 23.5601 24.1627 23.7948 24.408C24.0294 24.6533 24.1948 24.9787 24.2908 25.384C24.3868 25.7787 24.4348 26.2693 24.4348 26.856C24.4348 27.0373 24.4294 27.1973 24.4188 27.336C24.4081 27.464 24.3974 27.5707 24.3868 27.656C24.3761 27.7627 24.3654 27.8427 24.3548 27.896H20.4028C20.4134 28.2587 20.4348 28.5893 20.4668 28.888C20.4988 29.176 20.5308 29.4267 20.5628 29.64C20.6054 29.896 20.6481 30.12 20.6908 30.312C20.7228 30.3333 20.7708 30.3493 20.8348 30.36C20.8881 30.3707 20.9628 30.3813 21.0588 30.392C21.1654 30.392 21.2988 30.392 21.4588 30.392C21.7254 30.392 21.9761 30.376 22.2108 30.344C22.4561 30.3013 22.6694 30.2373 22.8508 30.152C23.0321 30.0667 23.1708 29.9493 23.2668 29.8C23.3734 29.64 23.4268 29.448 23.4268 29.224H24.2908C24.2908 29.672 24.1894 30.024 23.9868 30.28C23.7948 30.536 23.5494 30.7333 23.2508 30.872C22.9628 31 22.6481 31.08 22.3068 31.112C21.9654 31.144 21.6454 31.16 21.3468 31.16C20.6961 31.16 20.1414 31.096 19.6828 30.968C19.2348 30.8293 18.8668 30.616 18.5788 30.328C18.3014 30.0293 18.0988 29.6453 17.9708 29.176C17.8428 28.696 17.7788 28.1147 17.7788 27.432C17.7788 26.7493 17.8321 26.1733 17.9388 25.704C18.0561 25.224 18.2534 24.84 18.5308 24.552C18.8081 24.2533 19.1761 24.04 19.6348 23.912C20.1041 23.7733 20.6961 23.704 21.4108 23.704ZM20.6908 24.52C20.6374 24.7547 20.5894 25.0107 20.5468 25.288C20.5148 25.5333 20.4828 25.8213 20.4508 26.152C20.4188 26.472 20.4028 26.824 20.4028 27.208H21.9548C21.9334 26.76 21.9068 26.3707 21.8748 26.04C21.8428 25.6987 21.8054 25.416 21.7628 25.192C21.7201 24.9253 21.6721 24.7013 21.6188 24.52C21.5868 24.5093 21.5494 24.4933 21.5068 24.472C21.4641 24.4613 21.4108 24.4507 21.3468 24.44C21.2934 24.4293 21.2294 24.424 21.1548 24.424C21.0801 24.424 21.0161 24.4293 20.9628 24.44C20.9094 24.4507 20.8614 24.4613 20.8188 24.472C20.7761 24.4933 20.7334 24.5093 20.6908 24.52ZM29.448 21.16H30.392L32.92 20.696V30.2H33.128C33.224 30.2 33.32 30.1947 33.416 30.184L33.768 30.152V30.92C33.576 30.952 33.3893 30.9787 33.208 31C33.0587 31.0213 32.8987 31.0373 32.728 31.048C32.5573 31.0587 32.4187 31.064 32.312 31.064C31.7893 31.064 31.3947 30.968 31.128 30.776C30.8613 30.584 30.6693 30.376 30.552 30.152C30.2427 30.4613 29.8907 30.7013 29.496 30.872C29.112 31.0427 28.7067 31.128 28.28 31.128C27.8427 31.128 27.4533 31.064 27.112 30.936C26.7707 30.7973 26.4827 30.584 26.248 30.296C26.024 29.9973 25.8533 29.6133 25.736 29.144C25.6187 28.664 25.56 28.088 25.56 27.416C25.56 26.7333 25.624 26.1573 25.752 25.688C25.88 25.208 26.0933 24.824 26.392 24.536C26.6907 24.2373 27.0747 24.024 27.544 23.896C28.0133 23.768 28.5947 23.704 29.288 23.704C29.48 23.704 29.6667 23.7147 29.848 23.736L30.392 23.8V21.96H29.448V21.16ZM28.472 30.264C28.824 30.264 29.1653 30.152 29.496 29.928C29.8373 29.704 30.136 29.4213 30.392 29.08V24.584C30.2107 24.5307 30.0187 24.4933 29.816 24.472C29.624 24.44 29.448 24.424 29.288 24.424C29.1493 24.424 29.032 24.4293 28.936 24.44C28.84 24.4507 28.7547 24.4613 28.68 24.472C28.5947 24.4933 28.5253 24.5093 28.472 24.52C28.4187 24.776 28.3707 25.0533 28.328 25.352C28.2853 25.608 28.248 25.912 28.216 26.264C28.1947 26.616 28.184 27 28.184 27.416C28.184 27.928 28.1947 28.3653 28.216 28.728C28.248 29.08 28.2853 29.3733 28.328 29.608C28.3707 29.8853 28.4187 30.104 28.472 30.264ZM38.2858 23.704C38.8724 23.704 39.3578 23.7627 39.7418 23.88C40.1258 23.9867 40.4351 24.1627 40.6698 24.408C40.9044 24.6533 41.0698 24.9787 41.1658 25.384C41.2618 25.7787 41.3098 26.2693 41.3098 26.856C41.3098 27.0373 41.3044 27.1973 41.2938 27.336C41.2831 27.464 41.2724 27.5707 41.2618 27.656C41.2511 27.7627 41.2404 27.8427 41.2298 27.896H37.2778C37.2884 28.2587 37.3098 28.5893 37.3418 28.888C37.3738 29.176 37.4058 29.4267 37.4378 29.64C37.4804 29.896 37.5231 30.12 37.5658 30.312C37.5978 30.3333 37.6458 30.3493 37.7098 30.36C37.7631 30.3707 37.8378 30.3813 37.9338 30.392C38.0404 30.392 38.1738 30.392 38.3338 30.392C38.6004 30.392 38.8511 30.376 39.0858 30.344C39.3311 30.3013 39.5444 30.2373 39.7258 30.152C39.9071 30.0667 40.0458 29.9493 40.1418 29.8C40.2484 29.64 40.3018 29.448 40.3018 29.224H41.1658C41.1658 29.672 41.0644 30.024 40.8618 30.28C40.6698 30.536 40.4244 30.7333 40.1258 30.872C39.8378 31 39.5231 31.08 39.1818 31.112C38.8404 31.144 38.5204 31.16 38.2218 31.16C37.5711 31.16 37.0164 31.096 36.5578 30.968C36.1098 30.8293 35.7418 30.616 35.4538 30.328C35.1764 30.0293 34.9738 29.6453 34.8458 29.176C34.7178 28.696 34.6538 28.1147 34.6538 27.432C34.6538 26.7493 34.7071 26.1733 34.8138 25.704C34.9311 25.224 35.1284 24.84 35.4058 24.552C35.6831 24.2533 36.0511 24.04 36.5098 23.912C36.9791 23.7733 37.5711 23.704 38.2858 23.704ZM37.5658 24.52C37.5124 24.7547 37.4644 25.0107 37.4218 25.288C37.3898 25.5333 37.3578 25.8213 37.3258 26.152C37.2938 26.472 37.2778 26.824 37.2778 27.208H38.8298C38.8084 26.76 38.7818 26.3707 38.7498 26.04C38.7178 25.6987 38.6804 25.416 38.6378 25.192C38.5951 24.9253 38.5471 24.7013 38.4938 24.52C38.4618 24.5093 38.4244 24.4933 38.3818 24.472C38.3391 24.4613 38.2858 24.4507 38.2218 24.44C38.1684 24.4293 38.1044 24.424 38.0298 24.424C37.9551 24.424 37.8911 24.4293 37.8378 24.44C37.7844 24.4507 37.7364 24.4613 37.6938 24.472C37.6511 24.4933 37.6084 24.5093 37.5658 24.52ZM42.355 24.104H43.299L45.715 23.64V24.664C45.7257 24.632 45.763 24.568 45.827 24.472C45.9017 24.3653 46.0137 24.2587 46.163 24.152C46.323 24.0347 46.5257 23.9333 46.771 23.848C47.027 23.752 47.347 23.704 47.731 23.704C47.9657 23.704 48.147 23.7093 48.275 23.72C48.4137 23.7307 48.5203 23.7413 48.595 23.752C48.6803 23.7627 48.7337 23.7733 48.755 23.784V26.872C48.371 26.872 48.051 26.7973 47.795 26.648C47.539 26.4987 47.331 26.312 47.171 26.088C47.011 25.864 46.8883 25.6293 46.803 25.384C46.7177 25.1387 46.659 24.92 46.627 24.728C46.531 24.7813 46.4403 24.856 46.355 24.952C46.2697 25.0373 46.1897 25.1333 46.115 25.24C46.051 25.336 45.9923 25.432 45.939 25.528C45.8857 25.6133 45.8483 25.6827 45.827 25.736V30.184H46.771V31H42.355V30.184H43.299V24.904H42.355V24.104Z" fill="black"/>
<path d="M61.0354 21.16C61.1527 21.16 61.2807 21.16 61.4194 21.16C61.558 21.1493 61.686 21.144 61.8034 21.144C61.9314 21.144 62.038 21.144 62.1234 21.144C62.2194 21.1333 62.2834 21.128 62.3154 21.128C63.6914 21.128 64.71 21.352 65.3714 21.8C66.0327 22.248 66.3634 23.016 66.3634 24.104C66.3634 25.1813 66.0327 25.944 65.3714 26.392C64.7207 26.84 63.702 27.064 62.3154 27.064H61.8674C61.7074 27.064 61.542 27.0587 61.3714 27.048V30.072H62.7954V31H57.2594V30.072H58.6834V22.088H57.2594V21.16H61.0354ZM62.3154 21.944C62.134 21.944 61.9634 21.9493 61.8034 21.96C61.6434 21.9707 61.4994 21.9867 61.3714 22.008V26.168C61.638 26.2 61.9527 26.216 62.3154 26.216C62.5607 26.216 62.758 26.2 62.9074 26.168C62.9927 26.1573 63.0674 26.1413 63.1314 26.12C63.174 25.9707 63.2167 25.8 63.2594 25.608C63.2914 25.4373 63.318 25.2293 63.3394 24.984C63.3714 24.728 63.3874 24.44 63.3874 24.12C63.3874 23.7893 63.3714 23.496 63.3394 23.24C63.318 22.984 63.2914 22.7653 63.2594 22.584C63.2167 22.3813 63.174 22.2 63.1314 22.04C63.0674 22.0293 62.9927 22.0133 62.9074 21.992C62.8327 21.9813 62.742 21.9707 62.6354 21.96C62.5394 21.9493 62.4327 21.944 62.3154 21.944ZM68.3396 30.072V22.088H66.9156V21.16H70.5956C70.7876 21.16 70.9956 21.1547 71.2196 21.144C71.4543 21.1333 71.5983 21.128 71.6516 21.128C73.0383 21.128 74.057 21.352 74.7076 21.8C75.3583 22.248 75.6836 22.9253 75.6836 23.832C75.6836 24.4613 75.529 24.9627 75.2196 25.336C74.921 25.6987 74.5423 25.9707 74.0836 26.152L76.8836 30.664V31H73.9396L71.2996 26.52H71.0276V30.072H72.1316V31H66.9156V30.072H68.3396ZM71.6516 21.944C71.4276 21.944 71.2196 21.96 71.0276 21.992V25.8H72.6756C72.697 25.608 72.7183 25.4053 72.7396 25.192C72.761 25.0107 72.777 24.808 72.7876 24.584C72.809 24.3493 72.8196 24.1093 72.8196 23.864C72.8196 23.6187 72.8036 23.384 72.7716 23.16C72.7503 22.936 72.7236 22.7387 72.6916 22.568C72.649 22.376 72.6116 22.1893 72.5796 22.008C72.505 21.9973 72.4143 21.9867 72.3076 21.976C72.2223 21.9653 72.121 21.96 72.0036 21.96C71.8863 21.9493 71.769 21.944 71.6516 21.944ZM77.4075 26.072C77.4075 25.144 77.4982 24.3547 77.6795 23.704C77.8715 23.0533 78.1595 22.52 78.5435 22.104C78.9382 21.688 79.4342 21.3893 80.0315 21.208C80.6395 21.016 81.3595 20.92 82.1915 20.92C82.2982 20.92 82.3995 20.9253 82.4955 20.936C82.5915 20.936 82.6875 20.936 82.7835 20.936H83.7435C84.1275 20.936 84.4688 20.9253 84.7675 20.904C85.0662 20.8827 85.3168 20.8347 85.5195 20.76C85.7222 20.6747 85.8768 20.5573 85.9835 20.408C86.0902 20.2587 86.1435 20.0507 86.1435 19.784H87.0075C87.0075 20.392 86.8582 20.8293 86.5595 21.096C86.2608 21.352 85.8182 21.5227 85.2315 21.608C85.8395 21.992 86.2822 22.5467 86.5595 23.272C86.8475 23.9973 86.9915 24.9307 86.9915 26.072C86.9915 27 86.8955 27.7947 86.7035 28.456C86.5222 29.1067 86.2342 29.64 85.8395 30.056C85.4555 30.472 84.9595 30.776 84.3515 30.968C83.7435 31.1493 83.0235 31.24 82.1915 31.24C81.3595 31.24 80.6395 31.1493 80.0315 30.968C79.4342 30.776 78.9382 30.472 78.5435 30.056C78.1595 29.64 77.8715 29.1067 77.6795 28.456C77.4982 27.7947 77.4075 27 77.4075 26.072ZM80.3995 26.072C80.3995 26.68 80.4208 27.24 80.4635 27.752C80.5168 28.264 80.5702 28.7067 80.6235 29.08C80.6875 29.5173 80.7675 29.9227 80.8635 30.296C80.9702 30.328 81.0875 30.3547 81.2155 30.376C81.3328 30.3973 81.4715 30.4133 81.6315 30.424C81.7915 30.4347 81.9782 30.44 82.1915 30.44C82.4048 30.44 82.5968 30.4347 82.7675 30.424C82.9382 30.4133 83.0822 30.3973 83.1995 30.376C83.3275 30.3547 83.4395 30.328 83.5355 30.296C83.6208 29.9013 83.6955 29.48 83.7595 29.032C83.8128 28.648 83.8662 28.2053 83.9195 27.704C83.9728 27.192 83.9995 26.648 83.9995 26.072C83.9995 25.4747 83.9728 24.92 83.9195 24.408C83.8662 23.896 83.8128 23.4533 83.7595 23.08C83.6955 22.6427 83.6208 22.2373 83.5355 21.864C83.4288 21.8427 83.3115 21.8213 83.1835 21.8C83.0662 21.7787 82.9222 21.7627 82.7515 21.752C82.5915 21.7307 82.4048 21.72 82.1915 21.72C81.9782 21.72 81.7915 21.7307 81.6315 21.752C81.4715 21.7627 81.3328 21.7787 81.2155 21.8C81.0875 21.8213 80.9702 21.8427 80.8635 21.864C80.7675 22.2587 80.6875 22.68 80.6235 23.128C80.5702 23.512 80.5168 23.96 80.4635 24.472C80.4208 24.9733 80.3995 25.5067 80.3995 26.072ZM94.9049 21.16L97.2889 26.776L99.4329 21.16H103.545V22.088H102.121V30.072H103.545V31H99.4329V23.8L96.6809 30.968L96.6649 30.952L96.6489 31H96.1529L93.1289 23.704V30.072H94.5529V31H90.6969V30.072H92.1209V22.088H90.6969V21.16H94.9049ZM105.17 30.072L108.178 21.432L110.226 21.064L113.826 30.664V31H110.914L109.778 27.848H106.93L106.162 30.072H107.89V31H104.098V30.072H105.17ZM107.25 26.92H109.442L108.338 23.832L107.25 26.92ZM122.272 22.088L120.16 25.08L123.92 30.648V31H120.528L118.144 27.384L116.464 30.072H118.016V31H114.224V30.072H115.312L117.552 26.504L114.272 21.512V21.16H117.52L119.584 24.232L121.104 22.088H119.632V21.16H123.424V22.088H122.272Z" fill="black"/>
<line x1="64.35" y1="15.8986" x2="69.65" y2="15.8986" stroke="black" stroke-width="0.7" stroke-linecap="round"/>
<path d="M69 3.49724V11.5" stroke="black" stroke-linecap="round"/>
<path d="M57 8.24862L64 8.24862" stroke="black" stroke-linecap="round"/>
<path d="M69 3.49724L64 8.24862" stroke="black" stroke-linecap="round"/>
<path d="M52 3V34" stroke="black" stroke-linecap="round"/>
<path d="M52 3L57 8.24862" stroke="black" stroke-linecap="round"/>
<path d="M52 34H36" stroke="black" stroke-linecap="round"/>
<path d="M60 14.7486H62" stroke="black"/>
<line x1="64.2877" y1="14.8458" x2="69.5972" y2="13.9609" stroke="black" stroke-width="0.7" stroke-linecap="round"/>
<circle cx="2" cy="2" r="2" transform="matrix(-1 0 0 1 21 10)" fill="#EEB758"/>
<circle cx="2" cy="2" r="2" transform="matrix(-1 0 0 1 21 4)" fill="#A32626"/>
<circle cx="2" cy="2" r="2" transform="matrix(-1 0 0 1 16 7)" fill="#16385B"/>
</svg>
