<svg width="549" height="153" viewBox="0 0 549 153" fill="none" xmlns="http://www.w3.org/2000/svg">
<path d="M131.234 17.4489C131.753 17.4489 132.32 17.4489 132.934 17.4489C133.547 17.4017 134.114 17.3781 134.633 17.3781C135.2 17.3781 135.672 17.3781 136.05 17.3781C136.474 17.3309 136.758 17.3073 136.899 17.3073C142.989 17.3073 147.498 18.2987 150.425 20.2815C153.352 22.2643 154.815 25.6634 154.815 30.4788C154.815 35.247 153.352 38.6225 150.425 40.6053C147.545 42.5881 143.037 43.5796 136.899 43.5796H134.916C134.208 43.5796 133.477 43.5559 132.721 43.5087V56.8927H139.024V61H114.522V56.8927H120.824V21.5561H114.522V17.4489H131.234ZM136.899 20.9188C136.097 20.9188 135.341 20.9424 134.633 20.9896C133.925 21.0368 133.288 21.1077 132.721 21.2021V39.6139C133.901 39.7556 135.294 39.8264 136.899 39.8264C137.985 39.8264 138.858 39.7556 139.519 39.6139C139.897 39.5667 140.228 39.4959 140.511 39.4015C140.7 38.7405 140.889 37.9852 141.077 37.1354C141.219 36.38 141.337 35.4595 141.431 34.3736C141.573 33.2406 141.644 31.9659 141.644 30.5496C141.644 29.0861 141.573 27.7878 141.431 26.6548C141.337 25.5218 141.219 24.554 141.077 23.7514C140.889 22.8544 140.7 22.0518 140.511 21.3437C140.228 21.2965 139.897 21.2257 139.519 21.1313C139.189 21.084 138.788 21.0368 138.316 20.9896C137.891 20.9424 137.419 20.9188 136.899 20.9188ZM174.043 28.7084C176.639 28.7084 178.787 28.9681 180.487 29.4874C182.186 29.9595 183.556 30.7385 184.594 31.8243C185.633 32.9101 186.365 34.35 186.789 36.144C187.214 37.8908 187.427 40.0624 187.427 42.659C187.427 43.4615 187.403 44.1697 187.356 44.7834C187.309 45.3499 187.262 45.822 187.214 46.1997C187.167 46.6718 187.12 47.0259 187.073 47.2619H169.581C169.629 48.8671 169.723 50.3306 169.865 51.6524C170.006 52.9271 170.148 54.0365 170.29 54.9807C170.478 56.1138 170.667 57.1052 170.856 57.955C170.998 58.0494 171.21 58.1202 171.493 58.1674C171.729 58.2146 172.06 58.2618 172.485 58.309C172.957 58.309 173.547 58.309 174.255 58.309C175.435 58.309 176.545 58.2382 177.584 58.0966C178.669 57.9078 179.614 57.6245 180.416 57.2468C181.219 56.8691 181.832 56.3498 182.257 55.6889C182.729 54.9807 182.965 54.131 182.965 53.1396H186.789C186.789 55.1224 186.341 56.6803 185.444 57.8133C184.594 58.9464 183.508 59.8198 182.186 60.4335C180.912 61 179.519 61.3541 178.008 61.4957C176.498 61.6373 175.081 61.7081 173.76 61.7081C170.88 61.7081 168.425 61.4249 166.395 60.8584C164.412 60.2446 162.783 59.3004 161.509 58.0258C160.281 56.7039 159.384 55.0043 158.818 52.9271C158.251 50.8027 157.968 48.2297 157.968 45.2083C157.968 42.1869 158.204 39.6375 158.676 37.5603C159.195 35.4358 160.069 33.7363 161.296 32.4616C162.524 31.1397 164.152 30.1956 166.182 29.629C168.26 29.0153 170.88 28.7084 174.043 28.7084ZM170.856 32.32C170.62 33.3586 170.408 34.4917 170.219 35.7191C170.077 36.8049 169.936 38.0796 169.794 39.5431C169.652 40.9594 169.581 42.5173 169.581 44.2169H176.45C176.356 42.2341 176.238 40.5109 176.096 39.0474C175.955 37.5367 175.79 36.2856 175.601 35.2942C175.412 34.114 175.199 33.1226 174.963 32.32C174.822 32.2728 174.657 32.202 174.468 32.1076C174.279 32.0603 174.043 32.0131 173.76 31.9659C173.523 31.9187 173.24 31.8951 172.91 31.8951C172.579 31.8951 172.296 31.9187 172.06 31.9659C171.824 32.0131 171.611 32.0603 171.423 32.1076C171.234 32.202 171.045 32.2728 170.856 32.32ZM194.531 25.9467L205.72 22.9016V29.2041H214.218V32.7449H205.72V57.4593H207.207C209.946 57.4593 211.315 55.382 211.315 51.2276H214.926C214.926 52.7383 214.832 54.1074 214.643 55.3348C214.501 56.5623 214.053 57.6245 213.297 58.5215C212.589 59.4185 211.503 60.103 210.04 60.5751C208.624 61.0472 206.641 61.2833 204.091 61.2833C202.345 61.2833 200.858 61.0944 199.63 60.7167C198.403 60.2919 197.411 59.7489 196.656 59.088C195.901 58.4271 195.358 57.6953 195.027 56.8927C194.697 56.0902 194.531 55.264 194.531 54.4142V25.9467ZM40.8998 91.4489V106.957C38.5393 106.957 36.5565 106.532 34.9514 105.683C33.3935 104.833 32.1424 103.818 31.1982 102.638C30.254 101.41 29.5459 100.159 29.0738 98.8844C28.6017 97.5626 28.2948 96.4531 28.1532 95.5561H22.488V112.693H34.1724V116.801H22.488V130.893H28.9321V135H4.28857V130.893H10.5911V116.801H4.28857V112.693H10.5911V95.5561H4.28857V91.4489H40.8998ZM59.4528 102.708C62.0493 102.708 64.1974 102.968 65.8969 103.487C67.5965 103.96 68.9656 104.738 70.0042 105.824C71.0428 106.91 71.7745 108.35 72.1994 110.144C72.6243 111.891 72.8368 114.062 72.8368 116.659C72.8368 117.462 72.8132 118.17 72.766 118.783C72.7187 119.35 72.6715 119.822 72.6243 120.2C72.5771 120.672 72.5299 121.026 72.4827 121.262H54.9914C55.0386 122.867 55.1331 124.331 55.2747 125.652C55.4163 126.927 55.558 128.037 55.6996 128.981C55.8884 130.114 56.0773 131.105 56.2661 131.955C56.4077 132.049 56.6202 132.12 56.9034 132.167C57.1395 132.215 57.47 132.262 57.8948 132.309C58.3669 132.309 58.9571 132.309 59.6652 132.309C60.8455 132.309 61.9549 132.238 62.9935 132.097C64.0793 131.908 65.0235 131.624 65.8261 131.247C66.6287 130.869 67.2424 130.35 67.6673 129.689C68.1394 128.981 68.3754 128.131 68.3754 127.14H72.1994C72.1994 129.122 71.7509 130.68 70.854 131.813C70.0042 132.946 68.9183 133.82 67.5965 134.433C66.3218 135 64.9291 135.354 63.4184 135.496C61.9077 135.637 60.4914 135.708 59.1695 135.708C56.2897 135.708 53.8348 135.425 51.8048 134.858C49.822 134.245 48.1932 133.3 46.9185 132.026C45.6911 130.704 44.7941 129.004 44.2276 126.927C43.6611 124.803 43.3778 122.23 43.3778 119.208C43.3778 116.187 43.6139 113.638 44.086 111.56C44.6053 109.436 45.4786 107.736 46.7061 106.462C47.9336 105.14 49.5623 104.196 51.5923 103.629C53.6696 103.015 56.2897 102.708 59.4528 102.708ZM56.2661 106.32C56.0301 107.359 55.8176 108.492 55.6288 109.719C55.4871 110.805 55.3455 112.08 55.2039 113.543C55.0622 114.959 54.9914 116.517 54.9914 118.217H61.8605C61.7661 116.234 61.648 114.511 61.5064 113.047C61.3648 111.537 61.1995 110.286 61.0107 109.294C60.8219 108.114 60.6094 107.123 60.3734 106.32C60.2317 106.273 60.0665 106.202 59.8777 106.108C59.6888 106.06 59.4528 106.013 59.1695 105.966C58.9335 105.919 58.6502 105.895 58.3197 105.895C57.9893 105.895 57.706 105.919 57.47 105.966C57.2339 106.013 57.0215 106.06 56.8326 106.108C56.6438 106.202 56.4549 106.273 56.2661 106.32ZM93.892 102.708C96.4886 102.708 98.6366 102.968 100.336 103.487C102.036 103.96 103.405 104.738 104.443 105.824C105.482 106.91 106.214 108.35 106.639 110.144C107.064 111.891 107.276 114.062 107.276 116.659C107.276 117.462 107.252 118.17 107.205 118.783C107.158 119.35 107.111 119.822 107.064 120.2C107.016 120.672 106.969 121.026 106.922 121.262H89.4307C89.4779 122.867 89.5723 124.331 89.7139 125.652C89.8556 126.927 89.9972 128.037 90.1388 128.981C90.3277 130.114 90.5165 131.105 90.7053 131.955C90.847 132.049 91.0594 132.12 91.3427 132.167C91.5787 132.215 91.9092 132.262 92.3341 132.309C92.8062 132.309 93.3963 132.309 94.1045 132.309C95.2847 132.309 96.3941 132.238 97.4327 132.097C98.5186 131.908 99.4628 131.624 100.265 131.247C101.068 130.869 101.682 130.35 102.107 129.689C102.579 128.981 102.815 128.131 102.815 127.14H106.639C106.639 129.122 106.19 130.68 105.293 131.813C104.443 132.946 103.358 133.82 102.036 134.433C100.761 135 99.3684 135.354 97.8576 135.496C96.3469 135.637 94.9306 135.708 93.6087 135.708C90.7289 135.708 88.274 135.425 86.244 134.858C84.2612 134.245 82.6325 133.3 81.3578 132.026C80.1303 130.704 79.2333 129.004 78.6668 126.927C78.1003 124.803 77.817 122.23 77.817 119.208C77.817 116.187 78.0531 113.638 78.5252 111.56C79.0445 109.436 79.9179 107.736 81.1453 106.462C82.3728 105.14 84.0015 104.196 86.0316 103.629C88.1088 103.015 90.7289 102.708 93.892 102.708ZM90.7053 106.32C90.4693 107.359 90.2568 108.492 90.068 109.719C89.9264 110.805 89.7847 112.08 89.6431 113.543C89.5015 114.959 89.4307 116.517 89.4307 118.217H96.2997C96.2053 116.234 96.0873 114.511 95.9456 113.047C95.804 111.537 95.6388 110.286 95.4499 109.294C95.2611 108.114 95.0486 107.123 94.8126 106.32C94.671 106.273 94.5057 106.202 94.3169 106.108C94.1281 106.06 93.892 106.013 93.6087 105.966C93.3727 105.919 93.0894 105.895 92.759 105.895C92.4285 105.895 92.1452 105.919 91.9092 105.966C91.6731 106.013 91.4607 106.06 91.2719 106.108C91.083 106.202 90.8942 106.273 90.7053 106.32ZM129.464 91.4489H133.642L144.831 89.3953V131.459H145.752C146.177 131.459 146.601 131.436 147.026 131.388L148.584 131.247V134.646C147.735 134.788 146.908 134.906 146.106 135C145.445 135.094 144.737 135.165 143.981 135.212C143.226 135.26 142.612 135.283 142.14 135.283C139.827 135.283 138.08 134.858 136.9 134.009C135.72 133.159 134.87 132.238 134.351 131.247C132.981 132.616 131.423 133.678 129.677 134.433C127.977 135.189 126.183 135.567 124.295 135.567C122.359 135.567 120.636 135.283 119.125 134.717C117.615 134.103 116.34 133.159 115.301 131.884C114.31 130.562 113.555 128.863 113.035 126.785C112.516 124.661 112.256 122.112 112.256 119.137C112.256 116.116 112.54 113.567 113.106 111.489C113.673 109.365 114.617 107.665 115.939 106.391C117.261 105.069 118.96 104.125 121.037 103.558C123.115 102.992 125.687 102.708 128.756 102.708C129.606 102.708 130.432 102.756 131.235 102.85L133.642 103.133V94.9896H129.464V91.4489ZM125.145 131.743C126.703 131.743 128.213 131.247 129.677 130.255C131.187 129.264 132.509 128.013 133.642 126.502V106.603C132.84 106.367 131.99 106.202 131.093 106.108C130.243 105.966 129.464 105.895 128.756 105.895C128.142 105.895 127.623 105.919 127.198 105.966C126.773 106.013 126.396 106.06 126.065 106.108C125.687 106.202 125.381 106.273 125.145 106.32C124.909 107.453 124.696 108.68 124.507 110.002C124.318 111.135 124.153 112.481 124.012 114.039C123.917 115.597 123.87 117.296 123.87 119.137C123.87 121.404 123.917 123.339 124.012 124.944C124.153 126.502 124.318 127.8 124.507 128.839C124.696 130.067 124.909 131.034 125.145 131.743ZM168.58 102.708C171.176 102.708 173.324 102.968 175.024 103.487C176.723 103.96 178.092 104.738 179.131 105.824C180.17 106.91 180.901 108.35 181.326 110.144C181.751 111.891 181.964 114.062 181.964 116.659C181.964 117.462 181.94 118.17 181.893 118.783C181.845 119.35 181.798 119.822 181.751 120.2C181.704 120.672 181.657 121.026 181.609 121.262H164.118C164.165 122.867 164.26 124.331 164.401 125.652C164.543 126.927 164.685 128.037 164.826 128.981C165.015 130.114 165.204 131.105 165.393 131.955C165.534 132.049 165.747 132.12 166.03 132.167C166.266 132.215 166.597 132.262 167.022 132.309C167.494 132.309 168.084 132.309 168.792 132.309C169.972 132.309 171.082 132.238 172.12 132.097C173.206 131.908 174.15 131.624 174.953 131.247C175.755 130.869 176.369 130.35 176.794 129.689C177.266 128.981 177.502 128.131 177.502 127.14H181.326C181.326 129.122 180.878 130.68 179.981 131.813C179.131 132.946 178.045 133.82 176.723 134.433C175.449 135 174.056 135.354 172.545 135.496C171.034 135.637 169.618 135.708 168.296 135.708C165.416 135.708 162.962 135.425 160.932 134.858C158.949 134.245 157.32 133.3 156.045 132.026C154.818 130.704 153.921 129.004 153.354 126.927C152.788 124.803 152.505 122.23 152.505 119.208C152.505 116.187 152.741 113.638 153.213 111.56C153.732 109.436 154.605 107.736 155.833 106.462C157.06 105.14 158.689 104.196 160.719 103.629C162.796 103.015 165.416 102.708 168.58 102.708ZM165.393 106.32C165.157 107.359 164.944 108.492 164.756 109.719C164.614 110.805 164.472 112.08 164.331 113.543C164.189 114.959 164.118 116.517 164.118 118.217H170.987C170.893 116.234 170.775 114.511 170.633 113.047C170.492 111.537 170.326 110.286 170.137 109.294C169.949 108.114 169.736 107.123 169.5 106.32C169.358 106.273 169.193 106.202 169.004 106.108C168.816 106.06 168.58 106.013 168.296 105.966C168.06 105.919 167.777 105.895 167.446 105.895C167.116 105.895 166.833 105.919 166.597 105.966C166.361 106.013 166.148 106.06 165.959 106.108C165.771 106.202 165.582 106.273 165.393 106.32ZM186.59 104.479H190.768L201.461 102.425V106.957C201.508 106.816 201.673 106.532 201.957 106.108C202.287 105.635 202.783 105.163 203.444 104.691C204.152 104.172 205.049 103.723 206.135 103.346C207.268 102.921 208.684 102.708 210.383 102.708C211.422 102.708 212.225 102.732 212.791 102.779C213.405 102.826 213.877 102.874 214.207 102.921C214.585 102.968 214.821 103.015 214.916 103.063V116.73C213.216 116.73 211.8 116.399 210.667 115.738C209.534 115.077 208.613 114.251 207.905 113.26C207.197 112.268 206.654 111.23 206.276 110.144C205.899 109.058 205.639 108.09 205.497 107.241C205.072 107.477 204.671 107.807 204.293 108.232C203.916 108.61 203.562 109.035 203.231 109.507C202.948 109.932 202.688 110.356 202.452 110.781C202.216 111.159 202.051 111.466 201.957 111.702V131.388H206.135V135H186.59V131.388H190.768V108.02H186.59V104.479Z" fill="#F6F1DB"/>
<path d="M269.175 92.6896C269.694 92.6896 270.261 92.6896 270.875 92.6896C271.488 92.6424 272.055 92.6188 272.574 92.6188C273.141 92.6188 273.613 92.6188 273.99 92.6188C274.415 92.5716 274.699 92.548 274.84 92.548C280.93 92.548 285.439 93.5394 288.366 95.5222C291.293 97.505 292.756 100.904 292.756 105.72C292.756 110.488 291.293 113.863 288.366 115.846C285.486 117.829 280.978 118.82 274.84 118.82H272.857C272.149 118.82 271.418 118.797 270.662 118.749V132.133H276.965V136.241H252.463V132.133H258.765V96.7969H252.463V92.6896H269.175ZM274.84 96.1595C274.038 96.1595 273.282 96.1832 272.574 96.2304C271.866 96.2776 271.229 96.3484 270.662 96.4428V114.855C271.842 114.996 273.235 115.067 274.84 115.067C275.926 115.067 276.799 114.996 277.46 114.855C277.838 114.807 278.169 114.737 278.452 114.642C278.641 113.981 278.829 113.226 279.018 112.376C279.16 111.621 279.278 110.7 279.372 109.614C279.514 108.481 279.585 107.207 279.585 105.79C279.585 104.327 279.514 103.029 279.372 101.896C279.278 100.763 279.16 99.7947 279.018 98.9921C278.829 98.0952 278.641 97.2926 278.452 96.5844C278.169 96.5372 277.838 96.4664 277.46 96.372C277.13 96.3248 276.729 96.2776 276.257 96.2304C275.832 96.1832 275.36 96.1595 274.84 96.1595ZM301.503 132.133V96.7969H295.201V92.6896H311.488C312.338 92.6896 313.258 92.666 314.25 92.6188C315.288 92.5716 315.926 92.548 316.162 92.548C322.299 92.548 326.808 93.5394 329.687 95.5222C332.567 97.505 334.007 100.503 334.007 104.516C334.007 107.301 333.323 109.52 331.953 111.172C330.632 112.777 328.956 113.981 326.926 114.784L339.318 134.754V136.241H326.288L314.604 116.413H313.4V132.133H318.286V136.241H295.201V132.133H301.503ZM316.162 96.1595C315.17 96.1595 314.25 96.2304 313.4 96.372V113.226H320.694C320.788 112.376 320.883 111.479 320.977 110.535C321.072 109.732 321.142 108.835 321.19 107.844C321.284 106.805 321.331 105.743 321.331 104.657C321.331 103.572 321.26 102.533 321.119 101.541C321.024 100.55 320.906 99.6767 320.765 98.9213C320.576 98.0715 320.411 97.2454 320.269 96.4428C319.939 96.3956 319.537 96.3484 319.065 96.3012C318.688 96.254 318.239 96.2304 317.72 96.2304C317.2 96.1832 316.681 96.1595 316.162 96.1595ZM341.637 114.43C341.637 110.323 342.038 106.829 342.841 103.949C343.69 101.069 344.965 98.7089 346.665 96.8677C348.411 95.0265 350.607 93.7046 353.251 92.9021C355.941 92.0523 359.128 91.6274 362.811 91.6274C363.283 91.6274 363.731 91.651 364.156 91.6982C364.581 91.6982 365.006 91.6982 365.431 91.6982H369.68C371.379 91.6982 372.89 91.651 374.212 91.5566C375.534 91.4622 376.643 91.2497 377.54 90.9193C378.437 90.5416 379.122 90.0223 379.594 89.3613C380.066 88.7004 380.302 87.7798 380.302 86.5995H384.126C384.126 89.2905 383.465 91.2261 382.143 92.4064C380.821 93.5394 378.862 94.2948 376.265 94.6724C378.956 96.372 380.915 98.8269 382.143 102.037C383.418 105.247 384.055 109.378 384.055 114.43C384.055 118.537 383.63 122.054 382.78 124.981C381.978 127.861 380.703 130.221 378.956 132.063C377.257 133.904 375.061 135.249 372.371 136.099C369.68 136.902 366.493 137.303 362.811 137.303C359.128 137.303 355.941 136.902 353.251 136.099C350.607 135.249 348.411 133.904 346.665 132.063C344.965 130.221 343.69 127.861 342.841 124.981C342.038 122.054 341.637 118.537 341.637 114.43ZM354.879 114.43C354.879 117.121 354.974 119.599 355.163 121.865C355.399 124.131 355.635 126.091 355.871 127.743C356.154 129.679 356.508 131.473 356.933 133.125C357.405 133.267 357.924 133.385 358.491 133.479C359.01 133.573 359.624 133.644 360.332 133.691C361.04 133.739 361.866 133.762 362.811 133.762C363.755 133.762 364.604 133.739 365.36 133.691C366.115 133.644 366.753 133.573 367.272 133.479C367.838 133.385 368.334 133.267 368.759 133.125C369.137 131.378 369.467 129.513 369.75 127.531C369.986 125.831 370.222 123.872 370.459 121.653C370.695 119.387 370.813 116.979 370.813 114.43C370.813 111.786 370.695 109.331 370.459 107.065C370.222 104.799 369.986 102.84 369.75 101.187C369.467 99.2518 369.137 97.4578 368.759 95.8055C368.287 95.7111 367.768 95.6166 367.201 95.5222C366.682 95.4278 366.044 95.357 365.289 95.3098C364.581 95.2154 363.755 95.1681 362.811 95.1681C361.866 95.1681 361.04 95.2154 360.332 95.3098C359.624 95.357 359.01 95.4278 358.491 95.5222C357.924 95.6166 357.405 95.7111 356.933 95.8055C356.508 97.5522 356.154 99.417 355.871 101.4C355.635 103.099 355.399 105.082 355.163 107.348C354.974 109.567 354.879 111.928 354.879 114.43ZM419.079 92.6896L429.63 117.546L439.12 92.6896H457.319V96.7969H451.016V132.133H457.319V136.241H439.12V104.374L426.939 136.099L426.869 136.028L426.798 136.241H424.603L411.219 103.949V132.133H417.521V136.241H400.455V132.133H406.757V96.7969H400.455V92.6896H419.079ZM464.509 132.133L477.823 93.8935L486.887 92.2647L502.82 134.754V136.241H489.932L484.904 122.29H472.299L468.9 132.133H476.548V136.241H459.765V132.133H464.509ZM473.715 118.183H483.417L478.531 104.516L473.715 118.183ZM540.205 96.7969L530.858 110.039L547.499 134.683V136.241H532.487L521.935 120.237L514.5 132.133H521.369V136.241H504.586V132.133H509.401L519.315 116.342L504.798 94.2475V92.6896H519.173L528.309 106.286L535.036 96.7969H528.521V92.6896H545.304V96.7969H540.205Z" fill="#F6F1DB"/>
<line x1="284.808" y1="70.3661" x2="308.266" y2="70.3661" stroke="white" stroke-width="3.09815" stroke-linecap="round"/>
<path d="M305.389 15.4785V50.8982" stroke="#F6F1DB" stroke-width="4.42593" stroke-linecap="round"/>
<path d="M252.278 36.5078L283.259 36.5078" stroke="#F6F1DB" stroke-width="4.42593" stroke-linecap="round"/>
<path d="M305.389 15.4785L283.259 36.5078" stroke="#F6F1DB" stroke-width="4.42593" stroke-linecap="round"/>
<path d="M230.148 13.2778V150.481" stroke="#F6F1DB" stroke-width="4.42593" stroke-linecap="round"/>
<path d="M230.148 13.2778L252.278 36.5078" stroke="#F6F1DB" stroke-width="4.42593" stroke-linecap="round"/>
<path d="M230.148 150.481H159.333" stroke="#F6F1DB" stroke-width="4.42593" stroke-linecap="round"/>
<path d="M265.556 65.2763H274.407" stroke="#F6F1DB" stroke-width="4.42593"/>
<line x1="284.533" y1="65.7066" x2="308.032" y2="61.79" stroke="#F6F1DB" stroke-width="3.09815" stroke-linecap="round"/>
<circle cx="8.85185" cy="8.85185" r="8.85185" transform="matrix(-1 0 0 1 92.9444 44.2593)" fill="#EEB758"/>
<circle cx="8.85185" cy="8.85185" r="8.85185" transform="matrix(-1 0 0 1 92.9444 17.7037)" fill="#E62020"/>
<circle cx="8.85185" cy="8.85185" r="8.85185" transform="matrix(-1 0 0 1 70.8148 30.9815)" fill="#16385B"/>
</svg>
